<?xml version="1.0" encoding="utf-8"?>
<svg viewBox="0 0 194.8 178.8" width="2500" height="2295" xmlns="http://www.w3.org/2000/svg">
  <g style="" transform="matrix(0.998023, 0, 0, 0.994165, 3.542887, 2.811828)">
    <ellipse style="fill: rgb(216, 216, 216); paint-order: fill; stroke: rgba(0, 0, 0, 0);" cx="97.077" cy="80.923" rx="85" ry="84.996" transform="matrix(0.052596, -0.998616, 0.999108, 0.043243, 7.225199, 183.797065)"/>
    <g transform="matrix(0.822497, 0, 0, 0.957746, 14.494667, -2.82815)" style="">
      <path d="M 79.22 1.67 C 65.52 6.57 58.12 16.17 56.42 31.47 C 55.52 39.47 57.22 47.87 61.52 56.67 C 65.72 65.27 72.82 73.27 85.92 83.87 C 96.82 92.87 101.02 97.67 108.52 109.47 C 115.82 121.27 118.32 128.97 117.72 138.77 C 117.42 143.37 116.42 148.17 115.22 150.97 C 106.82 169.77 74.62 178.17 56.02 166.47 C 42.22 157.77 36.12 139.47 44.32 131.27 C 46.22 129.37 48.62 127.87 49.82 127.87 C 55.12 127.87 57.02 138.57 53.02 145.47 L 50.72 149.37 L 53.42 146.87 C 58.92 141.77 60.52 133.97 57.42 127.97 C 54.02 121.27 43.62 122.77 38.82 130.57 C 35.22 136.37 35.42 147.27 39.32 155.57 C 47.52 173.37 70.32 182.47 94.22 177.37 C 121.32 171.67 141.52 144.77 137.02 120.37 C 134.32 105.77 126.32 96.67 101.02 79.67 C 75.72 62.47 66.72 52.47 63.82 37.77 C 60.42 20.97 72.82 5.77 89.82 5.87 C 98.82 5.97 110.92 14.17 110.92 20.27 C 110.92 24.17 113.42 27.87 116.02 27.87 C 117.12 27.87 119.42 28.57 121.02 29.47 C 122.82 30.37 125.92 30.87 128.72 30.67 C 133.02 30.37 133.42 30.17 133.72 27.67 C 133.92 26.17 133.32 23.67 132.42 21.97 C 130.22 17.67 129.62 18.07 131.62 22.47 C 132.92 25.07 133.12 26.37 132.32 27.67 C 130.32 30.77 128.42 29.97 125.62 24.97 C 124.12 22.27 121.32 18.77 119.32 17.17 C 117.42 15.67 113.52 12.27 110.62 9.77 C 100.32 0.57 89.82 -2.13 79.22 1.67 L 79.22 1.67 Z" style="paint-order: stroke; stroke-width: 2.25603px; stroke-miterlimit: 11; stroke: rgb(128, 140, 213); fill: rgb(96, 159, 204);"/>
      <path d="M 138.42 31.07 C 138.42 39.37 138.12 41.07 135.52 46.37 C 131.62 54.27 121.22 64.57 113.02 68.67 C 105.62 72.37 103.02 72.57 99.82 69.97 C 97.72 68.37 97.62 67.77 98.72 65.47 C 99.52 63.77 100.92 62.57 103.02 62.17 C 105.72 61.67 106.02 61.27 105.42 58.97 C 104.22 53.57 102.52 50.77 99.82 49.37 C 92.22 45.37 81.92 49.87 81.92 57.17 C 81.92 61.67 86.82 66.17 105.42 78.67 C 119.52 88.07 129.92 96.77 134.72 103.17 L 136.82 106.07 L 145.82 101.17 C 156.22 95.67 155.42 95.37 160.92 106.37 C 168.42 121.47 169.22 140.37 163.22 157.57 C 162.02 161.17 176.22 146.07 181.42 138.37 C 195.62 117.07 198.42 96.17 190.42 71.07 C 185.92 56.87 175.92 43.27 163.52 34.37 C 157.62 30.17 141.62 21.87 139.52 21.87 C 138.82 21.87 138.42 25.27 138.42 31.07 L 138.42 31.07 Z M 44.02 28.87 C 0.52 54.97 -11.68 94.27 11.62 133.17 C 15.92 140.27 32.62 159.57 33.62 158.57 C 33.82 158.27 32.82 154.17 31.42 149.37 C 30.02 144.57 28.92 138.67 28.92 136.17 C 28.92 129.47 31.72 117.37 35.32 108.37 C 38.02 101.87 38.92 100.47 40.52 100.67 C 47.12 101.87 74.32 115.97 92.62 127.77 C 101.72 133.57 101.92 133.57 107.82 127.47 L 111.22 123.97 L 109.42 119.17 C 106.32 110.77 99.12 101.27 89.62 92.67 C 56.92 63.17 52.32 55.77 53.12 33.47 C 53.32 28.17 53.12 23.87 52.82 23.87 C 52.52 23.87 48.52 26.07 44.02 28.87 L 44.02 28.87 Z" style="stroke-width: 0px; stroke-opacity: 0; fill: rgb(28, 23, 59);"/>
    </g>
  </g>
</svg>